<?xml version="1.0" encoding="UTF-8"?>
<svg width="300px" height="300px" viewBox="0 0 300 300" version="1.1" xmlns="http://www.w3.org/2000/svg" xmlns:xlink="http://www.w3.org/1999/xlink">
    <title>Group</title>
    <defs>
        <rect id="path-1" x="51" y="51" width="198" height="198" rx="44"></rect>
        <filter x="-15.2%" y="-12.1%" width="130.3%" height="130.3%" filterUnits="objectBoundingBox" id="filter-2">
            <feMorphology radius="3" operator="dilate" in="SourceAlpha" result="shadowSpreadOuter1"></feMorphology>
            <feOffset dx="0" dy="6" in="shadowSpreadOuter1" result="shadowOffsetOuter1"></feOffset>
            <feGaussianBlur stdDeviation="6" in="shadowOffsetOuter1" result="shadowBlurOuter1"></feGaussianBlur>
            <feColorMatrix values="0 0 0 0 0.00159679056   0 0 0 0 0.459994892   0 0 0 0 0.766605543  0 0 0 0.292588027 0" type="matrix" in="shadowBlurOuter1"></feColorMatrix>
        </filter>
        <filter x="-10.1%" y="-7.1%" width="120.2%" height="120.2%" filterUnits="objectBoundingBox" id="filter-3">
            <feGaussianBlur stdDeviation="1.5" in="SourceAlpha" result="shadowBlurInner1"></feGaussianBlur>
            <feOffset dx="0" dy="1" in="shadowBlurInner1" result="shadowOffsetInner1"></feOffset>
            <feComposite in="shadowOffsetInner1" in2="SourceAlpha" operator="arithmetic" k2="-1" k3="1" result="shadowInnerInner1"></feComposite>
            <feColorMatrix values="0 0 0 0 1   0 0 0 0 1   0 0 0 0 1  0 0 0 0.5 0" type="matrix" in="shadowInnerInner1"></feColorMatrix>
        </filter>
        <path d="M127.50457,46.3038489 C142.482888,49.7196496 152.513135,63.8418545 150.812406,79.1203913 C149.111677,94.3989281 136.221805,105.966228 120.859503,105.999981 L37.7961662,105.999981 C18.398872,106.019469 2.14271476,91.3272439 0.193310813,72.014708 C-1.75609313,52.7021721 11.235586,35.0535631 30.2449537,31.1909091 L30.2449537,30.4352621 C30.2352657,22.3001849 34.5823069,14.7836277 41.6358161,10.7390905 C48.6893252,6.69455338 57.3677202,6.74222392 64.376434,10.8640051 C75.2129881,0.149097174 91.4389958,-2.96468791 105.467813,2.97853354 C119.49663,8.92175498 128.556236,22.747634 128.410716,37.991732 C128.410716,40.8631906 128.108667,43.5835198 127.50457,46.3038489 Z M83.1034409,60.6611418 L105.757078,60.6611418 L75.5522285,30.4352621 L45.3473786,60.6611418 L68.001016,60.6611418 L68.001016,83.3305515 L83.1034409,83.3305515 L83.1034409,60.6611418 Z" id="path-4"></path>
        <filter x="-6.6%" y="-5.7%" width="113.2%" height="122.6%" filterUnits="objectBoundingBox" id="filter-5">
            <feOffset dx="0" dy="8" in="SourceAlpha" result="shadowOffsetOuter1"></feOffset>
            <feGaussianBlur stdDeviation="2" in="shadowOffsetOuter1" result="shadowBlurOuter1"></feGaussianBlur>
            <feColorMatrix values="0 0 0 0 0.303443458   0 0 0 0 0.604139193   0 0 0 0 0.875600621  0 0 0 0.409587727 0" type="matrix" in="shadowBlurOuter1"></feColorMatrix>
        </filter>
    </defs>
    <g id="Page-1" stroke="none" stroke-width="1" fill="none" fill-rule="evenodd">
        <g id="Group">
            <circle id="Oval" fill="#0198FD" cx="150" cy="150" r="150"></circle>
            <g id="Rectangle-2">
                <use fill="black" fill-opacity="1" filter="url(#filter-2)" xlink:href="#path-1"></use>
                <use fill="#75BDFE" fill-rule="evenodd" xlink:href="#path-1"></use>
                <use fill="black" fill-opacity="1" filter="url(#filter-3)" xlink:href="#path-1"></use>
            </g>
            <g id="cloud-upload" transform="translate(74.000000, 97.000000)" fill-rule="nonzero">
                <g id="Shape">
                    <use fill="black" fill-opacity="1" filter="url(#filter-5)" xlink:href="#path-4"></use>
                    <use fill="#FFFFFF" xlink:href="#path-4"></use>
                </g>
            </g>
        </g>
    </g>
</svg>