<?xml version="1.0" encoding="UTF-8"?>
<svg width="151px" height="106px" viewBox="0 0 151 106" version="1.1" xmlns="http://www.w3.org/2000/svg" xmlns:xlink="http://www.w3.org/1999/xlink">
    <title>Shape Copy</title>
    <g id="Page-1" stroke="none" stroke-width="1" fill="none" fill-rule="evenodd">
        <path d="M127.50457,46.3038489 C142.482888,49.7196496 152.513135,63.8418545 150.812406,79.1203913 C149.111677,94.3989281 136.221805,105.966228 120.859503,105.999981 L37.7961662,105.999981 C18.398872,106.019469 2.14271476,91.3272439 0.193310813,72.014708 C-1.75609313,52.7021721 11.235586,35.0535631 30.2449537,31.1909091 L30.2449537,30.4352621 C30.2352657,22.3001849 34.5823069,14.7836277 41.6358161,10.7390905 C48.6893252,6.69455338 57.3677202,6.74222392 64.376434,10.8640051 C75.2129881,0.149097174 91.4389958,-2.96468791 105.467813,2.97853354 C119.49663,8.92175498 128.556236,22.747634 128.410716,37.991732 C128.410716,40.8631906 128.108667,43.5835198 127.50457,46.3038489 Z M83.1034409,60.6611418 L105.757078,60.6611418 L75.5522285,30.4352621 L45.3473786,60.6611418 L68.001016,60.6611418 L68.001016,83.3305515 L83.1034409,83.3305515 L83.1034409,60.6611418 Z" id="Shape-Copy" fill="#000000" fill-rule="nonzero"></path>
    </g>
</svg>